<?xml version="1.0" encoding="utf-8"?>
<!-- Generator: Adobe Illustrator 16.0.0, SVG Export Plug-In . SVG Version: 6.00 Build 0)  -->
<!DOCTYPE svg PUBLIC "-//W3C//DTD SVG 1.1//EN" "http://www.w3.org/Graphics/SVG/1.1/DTD/svg11.dtd">
<svg version="1.1" id="Capa_1" xmlns="http://www.w3.org/2000/svg" xmlns:xlink="http://www.w3.org/1999/xlink" x="0px" y="0px"
	 width="612px" height="792px" viewBox="0 0 612 792" enable-background="new 0 0 612 792" xml:space="preserve">
<g>
	<path fill="#FFFFFF" d="M609.552,126.975c-91.8,52.734-172.89,14.892-396.78,75.276S1.938,520.899,1.938,520.899
		c-0.306,3.672,6.834,28.355,6.936,31.823c0,0,4.998,33.252,27.336,62.017c47.43,60.894,179.316,50.897,208.386,47.838
		c-4.284-7.548-7.854-16.729-10.506-27.54c-7.14-28.764-15.504-64.26-55.386-93.636c-7.242-5.305-15.504-11.425-23.97-16.83
		c-10.404-6.63-21.012-12.139-30.09-13.975c-10.812-2.142-15.606,1.122-25.602,3.061c-23.664,4.59-46.308-18.156-37.434-41.616
		c7.038-18.768,32.64-25.5,47.838-13.056c7.548,6.12,9.486,13.361,15.606,19.788c7.956,8.466,43.86,29.478,54.264,33.558
		c35.394,13.77,52.836-4.182,42.84-42.636c-6.12-23.562-17.136-53.143-21.624-60.078c-4.386-6.834-9.69-11.424-14.892-15.606
		c-6.936-5.712-14.382-12.648-18.36-21.012c-6.426-13.566-4.08-26.112,4.386-33.762c7.344-6.732,19.686-9.792,30.09-5.508
		c6.222,2.55,11.934,7.752,15.708,15.912c6.222,13.362,1.122,24.888,3.468,42.534c1.326,9.69,5.61,24.48,10.812,39.271
		c13.974,39.779,30.702,59.67,47.43,59.567c16.626-0.102,33.252-19.991,46.92-59.874c5.101-14.79,9.282-29.58,10.506-39.372
		c2.244-17.646-2.855-29.172,3.162-42.534c3.774-8.262,9.385-13.362,15.606-16.014c10.302-4.284,22.644-1.326,30.09,5.304
		c8.466,7.548,10.914,20.094,4.59,33.762c-3.876,8.364-11.322,15.402-18.156,21.114c-5.1,4.182-10.403,8.875-14.688,15.708
		c-4.488,6.936-15.198,36.617-21.114,60.18c-9.792,38.556,7.854,56.406,43.146,42.33c10.403-4.183,46.206-25.5,54.06-33.966
		c6.019-6.528,7.956-13.668,15.402-19.891c15.096-12.647,40.697-6.018,47.939,12.648c8.977,23.46-13.464,46.206-37.128,41.922
		c-9.996-1.836-14.79-4.998-25.602-2.856c-9.078,1.836-19.687,7.446-29.988,14.179c-8.466,5.405-16.728,11.628-23.868,16.932
		c-39.576,29.682-47.735,65.178-54.672,94.044c-1.53,6.223-3.366,11.935-5.406,17.136
		C663.306,574.143,609.552,126.975,609.552,126.975z"/>
</g>
</svg>
