<?xml version="1.0" encoding="utf-8"?>
<!-- Generator: Adobe Illustrator 16.0.0, SVG Export Plug-In . SVG Version: 6.00 Build 0)  -->
<!DOCTYPE svg PUBLIC "-//W3C//DTD SVG 1.1//EN" "http://www.w3.org/Graphics/SVG/1.1/DTD/svg11.dtd">
<svg version="1.1"
	 id="svg3710" xmlns:dc="http://purl.org/dc/elements/1.1/" xmlns:cc="http://creativecommons.org/ns#" xmlns:rdf="http://www.w3.org/1999/02/22-rdf-syntax-ns#" xmlns:svg="http://www.w3.org/2000/svg" xmlns:sodipodi="http://sodipodi.sourceforge.net/DTD/sodipodi-0.dtd" xmlns:inkscape="http://www.inkscape.org/namespaces/inkscape" inkscape:version="0.48.4 r9939" sodipodi:docname="Abierto_mexicano_Telcel_presentado_por_HSBC_logo.svg"
	 xmlns="http://www.w3.org/2000/svg" xmlns:xlink="http://www.w3.org/1999/xlink" x="0px" y="0px" width="31.913px" height="22px"
	 viewBox="0 0 31.913 22" enable-background="new 0 0 31.913 22" xml:space="preserve">
<title  id="title3158">Telecel logo</title>
<sodipodi:namedview  id="namedview62" inkscape:cy="17.540976" inkscape:cx="23.778067" inkscape:zoom="1" showgrid="false" guidetolerance="10" gridtolerance="10" objecttolerance="10" borderopacity="1" bordercolor="#ffffff" pagecolor="#ffffff" inkscape:current-layer="svg3710" inkscape:window-maximized="1" inkscape:window-y="-4" inkscape:window-x="-4" inkscape:pageopacity="0" inkscape:pageshadow="2" inkscape:window-height="844" inkscape:window-width="1600" inkscape:showpageshadow="false">
	</sodipodi:namedview>
<g id="layer1" transform="matrix(0.40086309,0,0,0.38856489,-86.292377,-187.65682)">
	<path id="path3143" inkscape:connector-curvature="0" fill="#FFFFFF" d="M254.275,535.827l1.788,1.749l1.47-1.749h7.421
		l1.624-2.428h-11.341l-0.324-0.354h-3.514l-0.21,0.354h-33.806l-1.592,2.428H254.275z"/>
	<path id="path3155" inkscape:connector-curvature="0" fill="#FFFFFF" d="M253.34,530.856h-4.658l-1.221-1.216h-27.736l1.602-2.448
		h23.733l0.091-0.538h4.679l0.124,0.538h20.562l-1.625,2.448h-16.488C252.404,529.64,252.51,530.265,253.34,530.856"/>
	<path id="path3159" inkscape:connector-curvature="0" fill="#FFFFFF" d="M247.106,523.477h25.905l1.608-2.438h-27.552l0.374-0.581
		h-8.235l-0.374,0.581h-13.409l-1.604,2.438h17.551l1.106,1.051h5.475L247.106,523.477L247.106,523.477z"/>
	<path id="path3163" inkscape:connector-curvature="0" fill="#FFFFFF" d="M250.194,517.036h27.056l1.61-2.44h-27.028l-0.196-0.518
		h-8.119l-0.309,0.518h-13.543l-1.597,2.44h12.551c0,0,0.837,0.199,0.251,1.028h8.419L250.194,517.036z"/>
	<path id="path3167" inkscape:connector-curvature="0" fill="#FFFFFF" d="M254.612,510.841h26.641l1.62-2.435h-25.964l-0.156-0.513
		h-8.953l-0.336,0.513h-13.787l-1.608,2.435h12.884c0,0,0.66,0.31,0.201,0.956h9.067
		C254.219,511.797,254.228,511.403,254.612,510.841"/>
	<path id="path3171" inkscape:connector-curvature="0" fill="#FFFFFF" d="M258.651,505.614h-9.203
		c0.508-0.838-0.717-0.976-0.717-0.976h-12.719l1.591-2.443h14.124l0.358-0.561h9.26l0.401,0.561h25.063l-1.625,2.443H259.2
		C259.2,504.638,258.808,505.068,258.651,505.614"/>
	<path id="path3175" inkscape:connector-curvature="0" fill="#FFFFFF" d="M265.105,498.516h24.228l1.605-2.44h-23.762l-0.598-1.058
		h-9.933l-0.763,1.058h-14.119l-1.607,2.44h12.561c0,0,1.503,0.009,0.822,1.007h11.193
		C264.733,499.522,264.776,499.179,265.105,498.516"/>
	<path id="path3179" inkscape:connector-curvature="0" fill="#FFFFFF" d="M267.52,489.935h27.357l-1.615,2.438h-23.342
		c-0.66,0-1.104,1.026-1.104,1.026h-11.069c0.56-0.975-0.666-1.026-0.666-1.026h-12.986l1.586-2.438h20.451l0.858-0.789l2.051-2.771
		h-0.492l1.839-2.371h1.4l-1.705,2.371h-0.414l-2.24,2.866L267.52,489.935z"/>
</g>
</svg>
