<?xml version="1.0" encoding="utf-8"?>
<!-- Generator: Adobe Illustrator 19.1.0, SVG Export Plug-In . SVG Version: 6.00 Build 0)  -->
<svg version="1.1" id="Capa_1" xmlns="http://www.w3.org/2000/svg" xmlns:xlink="http://www.w3.org/1999/xlink" x="0px" y="0px"
	 viewBox="0 0 600 527.5" style="enable-background:new 0 0 600 527.5;" xml:space="preserve">
<style type="text/css">
	.st0{fill:#2C2C2C;}
</style>
<g>
	<path class="st0" d="M597.6,0c-90,51.7-169.5,14.6-389,73.8C-10.9,133,1.9,386.2,1.9,386.2c-0.3,3.6,6.7,27.8,6.8,31.2
		c0,0,4.9,32.6,26.8,60.8c46.5,59.7,175.8,49.9,204.3,46.9c-4.2-7.4-7.7-16.4-10.3-27c-7-28.2-15.2-63-54.3-91.8
		c-7.1-5.2-15.2-11.2-23.5-16.5c-10.2-6.5-20.6-11.9-29.5-13.7c-10.6-2.1-15.3,1.1-25.1,3c-23.2,4.5-45.4-17.8-36.7-40.8
		c6.9-18.4,32-25,46.9-12.8c7.4,6,9.3,13.1,15.3,19.4c7.8,8.3,43,28.9,53.2,32.9c34.7,13.5,51.8-4.1,42-41.8
		c-6-23.1-16.8-52.1-21.2-58.9c-4.3-6.7-9.5-11.2-14.6-15.3c-6.8-5.6-14.1-12.4-18-20.6c-6.3-13.3-4-25.6,4.3-33.1
		c7.2-6.6,19.3-9.6,29.5-5.4c6.1,2.5,11.7,7.6,15.4,15.6c6.1,13.1,1.1,24.4,3.4,41.7c1.3,9.5,5.5,24,10.6,38.5
		c13.7,39,30.1,58.5,46.5,58.4c16.3-0.1,32.6-19.6,46-58.7c5-14.5,9.1-29,10.3-38.6c2.2-17.3-2.8-28.6,3.1-41.7
		c3.7-8.1,9.2-13.1,15.3-15.7c10.1-4.2,22.2-1.3,29.5,5.2c8.3,7.4,10.7,19.7,4.5,33.1c-3.8,8.2-11.1,15.1-17.8,20.7
		c-5,4.1-10.2,8.7-14.4,15.4c-4.4,6.8-14.9,35.9-20.7,59c-9.6,37.8,7.7,55.3,42.3,41.5c10.2-4.1,45.3-25,53-33.3
		c5.9-6.4,7.8-13.4,15.1-19.5c14.8-12.4,39.9-5.9,47,12.4c8.8,23-13.2,45.3-36.4,41.1c-9.8-1.8-14.5-4.9-25.1-2.8
		c-8.9,1.8-19.3,7.3-29.4,13.9c-8.3,5.3-16.4,11.4-23.4,16.6c-38.8,29.1-46.8,63.9-53.6,92.2c-1.5,6.1-3.3,11.7-5.3,16.8
		C650.3,438.4,597.6,0,597.6,0z"/>
</g>
</svg>
